<?xml version="1.0" encoding="UTF-8"?>
<svg version="1.1" xmlns="http://www.w3.org/2000/svg" width="75" height="101">
<path d="M0 0 C24.75 0 49.5 0 75 0 C75 33.33 75 66.66 75 101 C50.25 101 25.5 101 0 101 C0 67.67 0 34.34 0 0 Z " fill="#F1A521" transform="translate(0,0)"/>
<path d="M0 0 C24.75 0 49.5 0 75 0 C75 33.33 75 66.66 75 101 C50.25 101 25.5 101 0 101 C0 92.42 0 83.84 0 75 C1.65 76.32 3.3 77.64 5 79 C7.57346486 80.55349403 10.25530652 81.7784606 13 83 C13.62132812 83.30292969 14.24265625 83.60585937 14.8828125 83.91796875 C24.40090641 87.89317268 37.12681584 87.61634319 46.625 83.875 C53.57685217 80.46647414 59.52098553 76.39859211 64 70 C64.70125 69.071875 65.4025 68.14375 66.125 67.1875 C70.8093554 59.22409583 71.40357932 49.58783466 69.171875 40.703125 C67.00928818 32.6784473 67.00928818 32.6784473 61.875 26.75 C61.25625 26.5025 60.6375 26.255 60 26 C60 25.01 60 24.02 60 23 C59.319375 22.7525 58.63875 22.505 57.9375 22.25 C55.14855064 21.06321304 52.68199321 19.64128529 50.13671875 18 C43.50641556 14.89696962 36.75251908 14.63536773 29.5625 14.625 C28.67240234 14.60050781 27.78230469 14.57601563 26.86523438 14.55078125 C17.72114379 14.51070489 11.39783161 17.83872213 4 23 C2.02 23.99 2.02 23.99 0 25 C0 16.75 0 8.5 0 0 Z " fill="#FCFCF8" transform="translate(0,0)"/>
<path d="M0 0 C0 4.29 0 8.58 0 13 C0.99 12.938125 1.98 12.87625 3 12.8125 C8.0349869 12.84307684 12.77726803 13.99130888 16.58203125 17.4296875 C20.6419128 22.13306613 21.52953347 26.32068473 21.4765625 32.359375 C20.61483648 37.13418478 17.60851468 39.95508701 14 43 C9.4251908 46.01742735 5.34936531 46.53884782 0 47 C0.03122943 48.96756452 0.03122943 48.96756452 1 51 C3.99615946 52.3045656 3.99615946 52.3045656 7 53 C7 53.99 7 54.98 7 56 C-1.91 56 -10.82 56 -20 56 C-20 54.68 -20 53.36 -20 52 C-16.535 51.505 -16.535 51.505 -13 51 C-12.67 49.68 -12.34 48.36 -12 47 C-12.60328125 46.95101562 -13.2065625 46.90203125 -13.828125 46.8515625 C-14.62734375 46.77679688 -15.4265625 46.70203125 -16.25 46.625 C-17.03890625 46.55539063 -17.8278125 46.48578125 -18.640625 46.4140625 C-24.56115665 45.3750288 -27.74535861 41.51416846 -31.62890625 37.18359375 C-33.35153045 34.44015521 -33.40127758 32.65650314 -33.375 29.4375 C-33.38273437 28.48746094 -33.39046875 27.53742187 -33.3984375 26.55859375 C-32.93714999 23.59640434 -32.2302188 22.89315803 -30 21 C-29.608125 20.175 -29.21625 19.35 -28.8125 18.5 C-26.22787721 14.93500305 -23.19315936 14.0278951 -19 13 C-16 12.8125 -16 12.8125 -14 13 C-14 14.65 -14 16.3 -14 18 C-15.175625 18.433125 -15.175625 18.433125 -16.375 18.875 C-19.09671632 19.84912254 -19.09671632 19.84912254 -21 22 C-21.30675232 24.89967757 -21.51173371 27.71783178 -21.625 30.625 C-21.68300781 31.82769531 -21.68300781 31.82769531 -21.7421875 33.0546875 C-21.83653931 35.03607556 -21.91936215 37.01800645 -22 39 C-17.72597809 40.73271159 -14.19238759 42.12880797 -9.55078125 42.09765625 C-8.70322266 42.09443359 -7.85566406 42.09121094 -6.98242188 42.08789062 C-6.10134766 42.07951172 -5.22027344 42.07113281 -4.3125 42.0625 C-3.41982422 42.05798828 -2.52714844 42.05347656 -1.60742188 42.04882812 C0.59511987 42.03704983 2.79752599 42.02060164 5 42 C5 41.34 5 40.68 5 40 C5.99 39.34 6.98 38.68 8 38 C9.18681726 34.43954823 9.09689832 31.56191663 9.0625 27.8125 C9.05347656 26.54019531 9.04445312 25.26789062 9.03515625 23.95703125 C9.02355469 22.98121094 9.01195312 22.00539063 9 21 C6.03 20.01 3.06 19.02 0 18 C0 25.59 0 33.18 0 41 C-3.96 41 -7.92 41 -12 41 C-12.33 30.11 -12.66 19.22 -13 8 C-15.31 7.67 -17.62 7.34 -20 7 C-20 5.68 -20 4.36 -20 3 C-17.60530271 2.49395076 -15.20948283 1.99500483 -12.8125 1.5 C-12.13896484 1.35691406 -11.46542969 1.21382812 -10.77148438 1.06640625 C-7.03206773 0.30028186 -3.85912726 0 0 0 Z " fill="#FBF4D8" transform="translate(37,21)"/>
<path d="M0 0 C0.66 0 1.32 0 2 0 C2.55700326 16.02931596 2.55700326 16.02931596 -1 22 C-1.33644531 22.57492188 -1.67289062 23.14984375 -2.01953125 23.7421875 C-3.0625 25.4375 -3.0625 25.4375 -5 28 C-5.66 28 -6.32 28 -7 28 C-7 28.66 -7 29.32 -7 30 C-7.99 30 -8.98 30 -10 30 C-10.07863281 30.76957031 -10.15726563 31.53914063 -10.23828125 32.33203125 C-11 35 -11 35 -12.85546875 36.51171875 C-14.00982422 37.09373047 -14.00982422 37.09373047 -15.1875 37.6875 C-15.94417969 38.08324219 -16.70085938 38.47898438 -17.48046875 38.88671875 C-27.75616035 43.42714062 -39.86502643 43.66886946 -50.625 40.375 C-56.66254042 38.02706762 -61.44514203 34.55485797 -66 30 C-66.1953125 26.7421875 -66.1953125 26.7421875 -66.125 22.875 C-66.10695313 21.59367187 -66.08890625 20.31234375 -66.0703125 18.9921875 C-66.04710938 18.00476563 -66.02390625 17.01734375 -66 16 C-64.35 16.33 -62.7 16.66 -61 17 C-61 17.66 -61 18.32 -61 19 C-59.68 19.33 -58.36 19.66 -57 20 C-57 20.99 -57 21.98 -57 23 C-56.31292969 22.97679688 -55.62585937 22.95359375 -54.91796875 22.9296875 C-53.56638672 22.90261719 -53.56638672 22.90261719 -52.1875 22.875 C-51.29417969 22.85179688 -50.40085937 22.82859375 -49.48046875 22.8046875 C-47 23 -47 23 -44 25 C-44 25.66 -44 26.32 -44 27 C-44.804375 27.2475 -45.60875 27.495 -46.4375 27.75 C-47.283125 28.1625 -48.12875 28.575 -49 29 C-49.33 30.32 -49.66 31.64 -50 33 C-40.43 33 -30.86 33 -21 33 C-21.66 30.36 -22.32 27.72 -23 25 C-22 24 -22 24 -18.8125 23.9375 C-13.94370639 22.74025567 -12.87880248 20.79462633 -10.26171875 16.71484375 C-9.63716797 15.86599609 -9.63716797 15.86599609 -9 15 C-8.34 15 -7.68 15 -7 15 C-5.515 9.06 -5.515 9.06 -4 3 C-3.34 3 -2.68 3 -2 3 C-1.505 3.99 -1.505 3.99 -1 5 C-0.67 3.35 -0.34 1.7 0 0 Z " fill="#F1A61C" transform="translate(66,45)"/>
<path d="M0 0 C2 3 2 3 2 5 C-11.6332574 8.44419134 -11.6332574 8.44419134 -18 8 C-18 9.32 -18 10.64 -18 12 C-16.865625 12.12375 -15.73125 12.2475 -14.5625 12.375 C-13.386875 12.58125 -12.21125 12.7875 -11 13 C-9.51320275 15.97359449 -9.88887395 18.66299179 -9.90234375 21.9765625 C-9.9037587 22.66181 -9.90517365 23.3470575 -9.90663147 24.05307007 C-9.91223325 26.24375761 -9.92478594 28.4343433 -9.9375 30.625 C-9.94251478 32.10937352 -9.94707772 33.59374865 -9.95117188 35.078125 C-9.96220323 38.71878315 -9.97946901 42.35938164 -10 46 C-6.04 46 -2.08 46 2 46 C2 38.41 2 30.82 2 23 C8 24 8 24 11 26 C12.98113636 31.35597911 12.89815518 37.95873823 10.625 43.125 C10.08875 43.74375 9.5525 44.3625 9 45 C8.34 45 7.68 45 7 45 C7 45.66 7 46.32 7 47 C1.42607186 49.78696407 -9.00330597 48.92361095 -14.90234375 47.10546875 C-17.0625 46 -17.0625 46 -20 44 C-20.10812003 41.24894578 -20.18734945 38.50214913 -20.25 35.75 C-20.28351562 34.97269531 -20.31703125 34.19539063 -20.3515625 33.39453125 C-20.41623437 29.61122657 -20.43737779 27.63090778 -18.234375 24.453125 C-16 23 -16 23 -12 23 C-12 21.35 -12 19.7 -12 18 C-21.00975441 19.70008684 -21.00975441 19.70008684 -27.75 25.1875 C-28.1625 26.115625 -28.575 27.04375 -29 28 C-29.33 28.33 -29.66 28.66 -30 29 C-30.62693666 34.33791784 -31.09684919 38.60670509 -27.6875 42.9375 C-26.800625 43.618125 -25.91375 44.29875 -25 45 C-24.5771875 45.66644531 -24.154375 46.33289062 -23.71875 47.01953125 C-21.36134285 49.73590722 -19.28903728 50.00235757 -15.8125 50.75 C-14.72582031 50.99234375 -13.63914062 51.2346875 -12.51953125 51.484375 C-11.68808594 51.65453125 -10.85664063 51.8246875 -10 52 C-10.33 53.65 -10.66 55.3 -11 57 C-12.32 56.67 -13.64 56.34 -15 56 C-14.34 56 -13.68 56 -13 56 C-14.75864246 53.8206856 -15.69396 53.06313581 -18.48046875 52.48828125 C-19.82044922 52.40126953 -19.82044922 52.40126953 -21.1875 52.3125 C-22.08855469 52.24675781 -22.98960938 52.18101563 -23.91796875 52.11328125 C-24.60503906 52.07589844 -25.29210938 52.03851563 -26 52 C-26 51.01 -26 50.02 -26 49 C-27.32 48.67 -28.64 48.34 -30 48 C-30 47.34 -30 46.68 -30 46 C-31.65 45.67 -33.3 45.34 -35 45 C-35 39.39 -35 33.78 -35 28 C-34.34 28 -33.68 28 -33 28 C-32.67 26.68 -32.34 25.36 -32 24 C-30.68 24.33 -29.36 24.66 -28 25 C-27.9175 24.4225 -27.835 23.845 -27.75 23.25 C-26.75807981 20.27423944 -25.43312373 18.96001634 -23 17 C-21.34450469 16.61500109 -19.6777567 16.27206865 -18 16 C-17.67 15.34 -17.34 14.68 -17 14 C-17.66 14 -18.32 14 -19 14 C-19.33 12.02 -19.66 10.04 -20 8 C-16.78569981 5.99106238 -13.70436403 5.60935867 -9.97265625 5.21875 C-7.61415223 4.95721292 -5.31710275 4.50686623 -3 4 C-3 3.34 -3 2.68 -3 2 C-2.01 2 -1.02 2 0 2 C0 1.34 0 0.68 0 0 Z " fill="#EBAE43" transform="translate(35,16)"/>
<path d="M0 0 C4.21074953 1.83076067 6.15862519 2.82621709 8 7 C8.78375 7.66 9.5675 8.32 10.375 9 C16.21473121 15.67397853 17.67428682 24.44951598 17.3125 33.12109375 C16.18716149 43.48827477 11.90541187 50.72081092 4.0625 57.5625 C3.381875 58.036875 2.70125 58.51125 2 59 C2 57.68 2 56.36 2 55 C2.99 55 3.98 55 5 55 C5 54.34 5 53.68 5 53 C5.66 53 6.32 53 7 53 C7.268125 52.443125 7.53625 51.88625 7.8125 51.3125 C9 49 9 49 10.5625 46.5 C13.17090199 41.96364872 13.26582956 37.39553 13.5625 32.25 C13.62727539 31.20392578 13.62727539 31.20392578 13.69335938 30.13671875 C13.79889596 28.42468078 13.8998991 26.71236439 14 25 C13.34 25 12.68 25 12 25 C12 26.65 12 28.3 12 30 C11.01 30.495 11.01 30.495 10 31 C10 30.01 10 29.02 10 28 C9.34 28 8.68 28 8 28 C7.96003906 28.59425781 7.92007813 29.18851563 7.87890625 29.80078125 C6.87815125 37.74504625 3.16476861 43.86113842 -3 49 C-6.80078125 49.80859375 -6.80078125 49.80859375 -10 50 C-9.67 50.66 -9.34 51.32 -9 52 C-9 53.98 -9 55.96 -9 58 C-18.57 58 -28.14 58 -38 58 C-37.67 56.68 -37.34 55.36 -37 54 C-37 54.99 -37 55.98 -37 57 C-28.09 57 -19.18 57 -10 57 C-10 56.01 -10 55.02 -10 54 C-12.31 53.34 -14.62 52.68 -17 52 C-17 50.68 -17 49.36 -17 48 C-16.41992188 47.81824219 -15.83984375 47.63648438 -15.2421875 47.44921875 C-5.50449304 44.44363946 -5.50449304 44.44363946 2.08984375 37.875 C4.35115724 33.21650011 3.4967289 27.83407593 2.1875 23 C1.01575898 20.698328 1.01575898 20.698328 -2 19 C-2 18.34 -2 17.68 -2 17 C-3.134375 16.87625 -4.26875 16.7525 -5.4375 16.625 C-6.613125 16.41875 -7.78875 16.2125 -9 16 C-9.33 15.34 -9.66 14.68 -10 14 C-9.07767578 13.96132813 -9.07767578 13.96132813 -8.13671875 13.921875 C-3.03484954 13.75034891 -3.03484954 13.75034891 0.9375 10.9375 C1.288125 10.298125 1.63875 9.65875 2 9 C2.66 9 3.32 9 4 9 C4 8.01 4 7.02 4 6 C3.34 6 2.68 6 2 6 C1.34 4.02 0.68 2.04 0 0 Z " fill="#F5A41E" transform="translate(54,20)"/>
<path d="M0 0 C2.475 0.495 2.475 0.495 5 1 C5 1.66 5 2.32 5 3 C6.32 3.33 7.64 3.66 9 4 C9 4.99 9 5.98 9 7 C10.03060547 6.96519531 10.03060547 6.96519531 11.08203125 6.9296875 C12.43361328 6.90261719 12.43361328 6.90261719 13.8125 6.875 C14.70582031 6.85179688 15.59914063 6.82859375 16.51953125 6.8046875 C19 7 19 7 22 9 C22 9.66 22 10.32 22 11 C20.35 11.66 18.7 12.32 17 13 C17.33 14.65 17.66 16.3 18 18 C18.95712891 18.09087891 18.95712891 18.09087891 19.93359375 18.18359375 C20.75988281 18.26738281 21.58617188 18.35117188 22.4375 18.4375 C23.67306641 18.55931641 23.67306641 18.55931641 24.93359375 18.68359375 C27 19 27 19 28 20 C30.5 20.16666667 30.5 20.16666667 33 20 C33.495 19.505 33.495 19.505 34 19 C35.99958364 18.95919217 38.00045254 18.95745644 40 19 C39.34 20.32 38.68 21.64 38 23 C19.86842654 23.56205796 19.86842654 23.56205796 12 20 C11.01 19.690625 10.02 19.38125 9 19.0625 C7 18 7 18 6.1875 15.875 C6.125625 15.25625 6.06375 14.6375 6 14 C5.34 14 4.68 14 4 14 C3.67 13.34 3.34 12.68 3 12 C2.01 12.33 1.02 12.66 0 13 C0 8.71 0 4.42 0 0 Z " fill="#F7A31E" transform="translate(0,61)"/>
<path d="M0 0 C0.14033532 8.26419088 -0.08531153 16.49395389 -0.4375 24.75 C-0.47673584 25.73887207 -0.51597168 26.72774414 -0.55639648 27.74658203 C-0.59837158 28.67067871 -0.64034668 29.59477539 -0.68359375 30.546875 C-0.73858032 31.79742676 -0.73858032 31.79742676 -0.79467773 33.07324219 C-1 35 -1 35 -2 36 C-4.33297433 36.04092937 -6.66705225 36.04241723 -9 36 C-9.01458252 35.0713916 -9.02916504 34.1427832 -9.04418945 33.18603516 C-9.10519172 29.74533504 -9.1793305 26.30544348 -9.26245117 22.86523438 C-9.29573463 21.37543428 -9.32375597 19.88550705 -9.34643555 18.39550781 C-9.37992071 16.25530748 -9.43222789 14.11627581 -9.48828125 11.9765625 C-9.51446533 10.68830566 -9.54064941 9.40004883 -9.56762695 8.07275391 C-9.71031006 7.05874512 -9.85299316 6.04473633 -10 5 C-10.99 4.34 -11.98 3.68 -13 3 C-11.5903653 2.29819469 -10.17192359 1.61406042 -8.75 0.9375 C-7.96109375 0.55464844 -7.1721875 0.17179687 -6.359375 -0.22265625 C-3.74006478 -1.08564091 -2.55144824 -0.93045933 0 0 Z " fill="#FAFCF5" transform="translate(36,24)"/>
<path d="M0 0 C0.66 0 1.32 0 2 0 C2.55700326 16.02931596 2.55700326 16.02931596 -1 22 C-1.61875 23.11375 -2.2375 24.2275 -2.875 25.375 C-5 28 -5 28 -7.5 29.0625 C-10.59646834 28.98508829 -11.7627115 28.07156343 -14 26 C-14.4125 26.495 -14.825 26.99 -15.25 27.5 C-17 29 -17 29 -21 29 C-21.66 27.68 -22.32 26.36 -23 25 C-22 24 -22 24 -18.8125 23.9375 C-13.94370639 22.74025567 -12.87880248 20.79462633 -10.26171875 16.71484375 C-9.84535156 16.14894531 -9.42898437 15.58304688 -9 15 C-8.34 15 -7.68 15 -7 15 C-6.01 11.04 -5.02 7.08 -4 3 C-3.34 3 -2.68 3 -2 3 C-1.67 3.66 -1.34 4.32 -1 5 C-0.67 3.35 -0.34 1.7 0 0 Z " fill="#F7A319" transform="translate(66,45)"/>
<path d="M0 0 C1.65 0 3.3 0 5 0 C5.33 1.32 5.66 2.64 6 4 C9.3 4 12.6 4 16 4 C16.66 5.98 17.32 7.96 18 10 C18.66 10 19.32 10 20 10 C20 10.99 20 11.98 20 13 C19.34 13 18.68 13 18 13 C17.690625 13.639375 17.38125 14.27875 17.0625 14.9375 C16 17 16 17 15 18 C13.48071962 18.07179964 11.95832518 18.08392007 10.4375 18.0625 C9.61121094 18.05347656 8.78492188 18.04445313 7.93359375 18.03515625 C6.97646484 18.01775391 6.97646484 18.01775391 6 18 C6 17.34 6 16.68 6 16 C4.35 16 2.7 16 1 16 C0.67 10.72 0.34 5.44 0 0 Z " fill="#F7A319" transform="translate(38,16)"/>
<path d="M0 0 C-0.33 0.53625 -0.66 1.0725 -1 1.625 C-2.22699204 4.5391061 -2.14233286 6.86867708 -2 10 C-1.34 10 -0.68 10 0 10 C-0.33 10.99 -0.66 11.98 -1 13 C-2.11375 13.268125 -3.2275 13.53625 -4.375 13.8125 C-8.2473577 14.65044185 -8.2473577 14.65044185 -9.9375 18.125 C-10.288125 19.07375 -10.63875 20.0225 -11 21 C-12.32 21 -13.64 21 -15 21 C-15.33 21.99 -15.66 22.98 -16 24 C-16.66 24 -17.32 24 -18 24 C-18 18.06 -18 12.12 -18 6 C-16.68 6 -15.36 6 -14 6 C-13.76152344 5.37738281 -13.52304688 4.75476563 -13.27734375 4.11328125 C-11.6638088 1.44379377 -10.50460997 1.09090651 -7.5625 0.1875 C-6.78003906 -0.06644531 -5.99757813 -0.32039063 -5.19140625 -0.58203125 C-3 -1 -3 -1 0 0 Z " fill="#F5A31C" transform="translate(18,20)"/>
<path d="M0 0 C0.99 0 1.98 0 3 0 C3 0.66 3 1.32 3 2 C3.66 2 4.32 2 5 2 C8.67954685 5.13619407 10.84471007 7.8547368 11.5 12.6875 C11.05747472 15.61922999 10.58304468 17.52649269 9 20 C8.34 20 7.68 20 7 20 C7 20.66 7 21.32 7 22 C6.34 22.33 5.68 22.66 5 23 C5 23.99 5 24.98 5 26 C3.02 26 1.04 26 -1 26 C-0.67 25.0925 -0.34 24.185 0 23.25 C2.13508669 15.79991026 1.37156018 7.54358099 0 0 Z " fill="#FBFCF5" transform="translate(46,38)"/>
<path d="M0 0 C0 4.62 0 9.24 0 14 C1.98 14 3.96 14 6 14 C6 14.99 6 15.98 6 17 C3.69 17 1.38 17 -1 17 C-1 24.59 -1 32.18 -1 40 C-4.3 40 -7.6 40 -11 40 C-11.33 29.77 -11.66 19.54 -12 9 C-14.64 8.34 -17.28 7.68 -20 7 C-20 5.68 -20 4.36 -20 3 C-17.60530271 2.49395076 -15.20948283 1.99500483 -12.8125 1.5 C-12.13896484 1.35691406 -11.46542969 1.21382812 -10.77148438 1.06640625 C-7.03206773 0.30028186 -3.85912726 0 0 0 Z M-9.75 3.9375 C-10.54921875 4.31777344 -11.3484375 4.69804687 -12.171875 5.08984375 C-12.77515625 5.39019531 -13.3784375 5.69054687 -14 6 C-12.515 6.99 -12.515 6.99 -11 8 C-10.56762695 11.07275391 -10.56762695 11.07275391 -10.48828125 14.9765625 C-10.47033005 15.66181 -10.45237885 16.3470575 -10.43388367 17.05307007 C-10.37966292 19.24365059 -10.34584947 21.4340119 -10.3125 23.625 C-10.27933706 25.10940559 -10.24484835 26.59378221 -10.20898438 28.078125 C-10.12393185 31.71853912 -10.05717644 35.35902944 -10 39 C-7.66705225 39.04241723 -5.33297433 39.04092937 -3 39 C-1.41788067 37.41788067 -1.78012635 35.74230219 -1.68359375 33.546875 C-1.6206311 32.16072998 -1.6206311 32.16072998 -1.55639648 30.74658203 C-1.51716064 29.75770996 -1.4779248 28.76883789 -1.4375 27.75 C-1.3950415 26.75468262 -1.35258301 25.75936523 -1.30883789 24.73388672 C-1.01633631 17.4843203 -0.87679189 10.25558896 -1 3 C-4.58736317 1.69176435 -6.36937876 2.2969044 -9.75 3.9375 Z " fill="#FDFAE1" transform="translate(37,21)"/>
<path d="M0 0 C1.75 0.1875 1.75 0.1875 4 1 C4.639375 1.804375 5.27875 2.60875 5.9375 3.4375 C8.16812308 6.20888019 9.6529109 6.97727833 13 8 C13 7.34 13 6.68 13 6 C12.34 6 11.68 6 11 6 C11.33 5.34 11.66 4.68 12 4 C12.78632813 4.49113281 13.57265625 4.98226562 14.3828125 5.48828125 C19.04548273 7.43693501 22.88806604 7.33395363 27.875 7.1875 C28.75414063 7.17396484 29.63328125 7.16042969 30.5390625 7.14648438 C32.69297552 7.11136623 34.84657004 7.05756694 37 7 C37 6.34 37 5.68 37 5 C38.32 4.34 39.64 3.68 41 3 C40.67 4.65 40.34 6.3 40 8 C40.99 8.33 41.98 8.66 43 9 C40.09907498 10.93395001 39.10325263 11.30131941 35.8125 11.625 C34.554375 11.74875 33.29625 11.8725 32 12 C32.495 14.475 32.495 14.475 33 17 C32.34 17 31.68 17 31 17 C31 14.36 31 11.72 31 9 C25.06 9.495 25.06 9.495 19 10 C19.33 10.66 19.66 11.32 20 12 C18.58249437 11.88490339 17.16598831 11.75746342 15.75 11.625 C14.56664062 11.52058594 14.56664062 11.52058594 13.359375 11.4140625 C8.24304893 10.51616422 5.4334702 7.79488812 2 4 C0.6875 1.6875 0.6875 1.6875 0 0 Z " fill="#FDF1CC" transform="translate(5,56)"/>
<path d="M0 0 C2 3 2 3 2 5 C-11.6332574 8.44419134 -11.6332574 8.44419134 -18 8 C-18 9.32 -18 10.64 -18 12 C-15.69 12.33 -13.38 12.66 -11 13 C-11 14.65 -11 16.3 -11 18 C-11.83144531 18.19335938 -12.66289062 18.38671875 -13.51953125 18.5859375 C-14.60621094 18.84632812 -15.69289063 19.10671875 -16.8125 19.375 C-17.89144531 19.63023438 -18.97039063 19.88546875 -20.08203125 20.1484375 C-24.96949892 21.57476675 -26.58735122 23.72303171 -29 28 C-29.33 28.33 -29.66 28.66 -30 29 C-30.23363881 30.84891946 -30.41303635 32.70488031 -30.5625 34.5625 C-30.64628906 35.57441406 -30.73007812 36.58632813 -30.81640625 37.62890625 C-30.90728516 38.80259766 -30.90728516 38.80259766 -31 40 C-31.33 40 -31.66 40 -32 40 C-32.08107583 38.06318839 -32.13922475 36.1254066 -32.1875 34.1875 C-32.22230469 33.10855469 -32.25710937 32.02960937 -32.29296875 30.91796875 C-31.96005476 27.60214539 -31.46491189 27.06112437 -29 25 C-28.4225 23.824375 -27.845 22.64875 -27.25 21.4375 C-25.48216793 18.16322736 -25.13232315 18.04709807 -21.3125 16.6875 C-20.219375 16.460625 -19.12625 16.23375 -18 16 C-17.67 15.34 -17.34 14.68 -17 14 C-17.66 14 -18.32 14 -19 14 C-19.33 12.02 -19.66 10.04 -20 8 C-16.78569981 5.99106238 -13.70436403 5.60935867 -9.97265625 5.21875 C-7.61415223 4.95721292 -5.31710275 4.50686623 -3 4 C-3 3.34 -3 2.68 -3 2 C-2.01 2 -1.02 2 0 2 C0 1.34 0 0.68 0 0 Z " fill="#E4B045" transform="translate(35,16)"/>
<path d="M0 0 C0.6875 1.70703125 0.6875 1.70703125 1 4 C-1.01260195 7.93913868 -3.80992663 12.13072232 -8.02734375 13.8046875 C-9.9375 14.0625 -9.9375 14.0625 -13 14 C-12.67 14.66 -12.34 15.32 -12 16 C-12 17.98 -12 19.96 -12 22 C-21.57 22 -31.14 22 -41 22 C-40.67 20.68 -40.34 19.36 -40 18 C-40 18.99 -40 19.98 -40 21 C-31.09 21 -22.18 21 -13 21 C-13 20.01 -13 19.02 -13 18 C-15.31 17.34 -17.62 16.68 -20 16 C-20 14.68 -20 13.36 -20 12 C-19.41992188 11.81824219 -18.83984375 11.63648437 -18.2421875 11.44921875 C-10.36705666 8.91514199 -5.05452621 6.6898141 0 0 Z " fill="#EAB14D" transform="translate(57,56)"/>
<path d="M0 0 C0 1.65 0 3.3 0 5 C-1.175625 5.433125 -1.175625 5.433125 -2.375 5.875 C-5.09671632 6.84912254 -5.09671632 6.84912254 -7 9 C-7.46486718 12.12196336 -7.46486718 12.12196336 -7.625 15.625 C-7.69976562 16.81351563 -7.77453125 18.00203125 -7.8515625 19.2265625 C-7.90054687 20.14179687 -7.94953125 21.05703125 -8 22 C-8.66 22 -9.32 22 -10 22 C-10.33 17.05 -10.66 12.1 -11 7 C-16.28817051 11.03340774 -16.28817051 11.03340774 -17.3125 16.75 C-17.45300781 17.73484375 -17.59351563 18.7196875 -17.73828125 19.734375 C-17.86783203 20.85585938 -17.86783203 20.85585938 -18 22 C-18.33 22 -18.66 22 -19 22 C-19.08114106 20.22992286 -19.13925505 18.45877902 -19.1875 16.6875 C-19.22230469 15.70136719 -19.25710937 14.71523438 -19.29296875 13.69921875 C-18.95420008 10.57803003 -18.34407412 9.95144171 -16 8 C-15.608125 7.175 -15.21625 6.35 -14.8125 5.5 C-11.4253668 0.82809213 -5.62706688 -0.52753752 0 0 Z " fill="#FDF3CF" transform="translate(23,34)"/>
<path d="M0 0 C5 1 5 1 6.8125 3.4375 C8.3519551 8.05586531 8.25722525 12.17940823 8 17 C7.01 17 6.02 17 5 17 C5 17.66 5 18.32 5 19 C3.35 19.33 1.7 19.66 0 20 C0 13.4 0 6.8 0 0 Z " fill="#EEA426" transform="translate(38,41)"/>
<path d="M0 0 C0.33 0.99 0.66 1.98 1 3 C1.66 3 2.32 3 3 3 C3.33 4.32 3.66 5.64 4 7 C4.639375 7.103125 5.27875 7.20625 5.9375 7.3125 C9 8 9 8 10.7734375 8.71679688 C17.81872255 11.53086188 24.56622742 11.34292511 32.0625 11.1875 C33.93325195 11.16719727 33.93325195 11.16719727 35.84179688 11.14648438 C38.89498967 11.1113902 41.9472599 11.06222267 45 11 C41.04578296 14.95421704 36.02198519 15.27334273 30.68115234 15.38037109 C18.63446285 15.35231401 8.04935558 13.70130344 -1 5 C-1.66 4.01 -2.32 3.02 -3 2 C-2.01 1.34 -1.02 0.68 0 0 Z " fill="#E8AA41" transform="translate(3,72)"/>
<path d="M0 0 C0.91265625 -0.020625 1.8253125 -0.04125 2.765625 -0.0625 C9.30376097 -0.09975434 16.56849059 0.21926362 21.62548828 4.85449219 C22.03782715 5.31500977 22.45016602 5.77552734 22.875 6.25 C20.235 6.25 17.595 6.25 14.875 6.25 C14.38 4.765 14.38 4.765 13.875 3.25 C5.46417647 1.25421137 -4.68871417 1.30316481 -13.125 3.25 C-13.42792969 3.89195313 -13.73085937 4.53390625 -14.04296875 5.1953125 C-15.125 7.25 -15.125 7.25 -17.25390625 8.2265625 C-18.05699219 8.44054688 -18.86007813 8.65453125 -19.6875 8.875 C-22.07243766 9.4902695 -22.07243766 9.4902695 -24.125 10.25 C-24.455 10.91 -24.785 11.57 -25.125 12.25 C-26.445 11.92 -27.765 11.59 -29.125 11.25 C-19.66436298 3.7016194 -12.12773224 0.06681946 0 0 Z " fill="#E8B358" transform="translate(29.125,13.75)"/>
<path d="M0 0 C1.65 0 3.3 0 5 0 C5 5.94 5 11.88 5 18 C1 17 1 17 -0.23828125 15.21875 C-1.05875636 12.82885327 -1.23496066 11.01972975 -1.1875 8.5 C-1.18105469 7.7471875 -1.17460937 6.994375 -1.16796875 6.21875 C-1.00303563 4.04009857 -0.59600906 2.09795189 0 0 Z " fill="#F3A321" transform="translate(18,42)"/>
<path d="M0 0 C0.66 0.99 1.32 1.98 2 3 C1.01 3.66 0.02 4.32 -1 5 C1.97 5.33 4.94 5.66 8 6 C8.042721 7.66611905 8.04063832 9.33382885 8 11 C6.42077594 12.57922406 4.80556126 12.207659 2.625 12.25 C1.83351563 12.27578125 1.04203125 12.3015625 0.2265625 12.328125 C-2.47024878 11.93070018 -3.30729015 11.07493465 -5 9 C-4.34 9 -3.68 9 -3 9 C-3 8.01 -3 7.02 -3 6 C-4.98 6 -6.96 6 -9 6 C-7.71502463 3.43004926 -6.50087627 3.09565537 -3.9375 1.875 C-3.20402344 1.52179688 -2.47054687 1.16859375 -1.71484375 0.8046875 C-1.14894531 0.53914063 -0.58304688 0.27359375 0 0 Z " fill="#F8E8C1" transform="translate(57,78)"/>
<path d="M0 0 C0.59167969 0.08378906 1.18335938 0.16757812 1.79296875 0.25390625 C6.09939457 0.80889424 9.75552644 1.23226652 14 0 C13.49396008 2.16874252 13.00016187 3.99967627 12 6 C12.66 6 13.32 6 14 6 C14 6.99 14 7.98 14 9 C14.598125 9.04125 15.19625 9.0825 15.8125 9.125 C18 10 18 10 19.75 12.6875 C21.02731925 16.07239602 21.25565968 18.42076448 21 22 C20.731875 21.4225 20.46375 20.845 20.1875 20.25 C19.04946754 17.94252104 19.04946754 17.94252104 17.375 15.875 C16 14 16 14 16 12 C14.68 11.34 13.36 10.68 12 10 C12 9.01 12 8.02 12 7 C11.319375 6.7525 10.63875 6.505 9.9375 6.25 C6.43134917 4.75802092 3.28379632 2.93164489 0 1 C0 0.67 0 0.34 0 0 Z " fill="#FDF9E7" transform="translate(48,16)"/>
<path d="M0 0 C1.65 0 3.3 0 5 0 C5 6.93 5 13.86 5 21 C0.545 20.01 0.545 20.01 -4 19 C-4 13.39 -4 7.78 -4 2 C-3.01 1.67 -2.02 1.34 -1 1 C-1.03480469 2.33804688 -1.03480469 2.33804688 -1.0703125 3.703125 C-1.08835937 4.87359375 -1.10640625 6.0440625 -1.125 7.25 C-1.14820313 8.41015625 -1.17140625 9.5703125 -1.1953125 10.765625 C-1.00892712 13.85216691 -0.78936323 15.51148161 1 18 C1.99 18.33 2.98 18.66 4 19 C4 13.06 4 7.12 4 1 C2.68 0.67 1.36 0.34 0 0 Z " fill="#E5AC49" transform="translate(19,41)"/>
<path d="M0 0 C1.12894876 0.93274109 2.25300876 1.87140122 3.375 2.8125 C4.00148438 3.33457031 4.62796875 3.85664062 5.2734375 4.39453125 C7 6 7 6 9 9 C11.87116002 10.02110539 11.87116002 10.02110539 15.125 10.6875 C16.22070312 10.93886719 17.31640625 11.19023438 18.4453125 11.44921875 C19.28835937 11.63097656 20.13140625 11.81273438 21 12 C20.67 13.65 20.34 15.3 20 17 C18.68 16.67 17.36 16.34 16 16 C16.66 16 17.32 16 18 16 C16.24135754 13.8206856 15.30604 13.06313581 12.51953125 12.48828125 C11.17955078 12.40126953 11.17955078 12.40126953 9.8125 12.3125 C8.91144531 12.24675781 8.01039062 12.18101563 7.08203125 12.11328125 C6.39496094 12.07589844 5.70789063 12.03851563 5 12 C5 11.01 5 10.02 5 9 C4.34 9 3.68 9 3 9 C2.67 7.35 2.34 5.7 2 4 C1.34 4 0.68 4 0 4 C0 2.68 0 1.36 0 0 Z " fill="#E7B64D" transform="translate(4,56)"/>
<path d="M0 0 C6 1 6 1 9 3 C10.16216154 6.05482461 10.10513524 9.00972162 10.0625 12.25 C10.05347656 13.14203125 10.04445313 14.0340625 10.03515625 14.953125 C10.02355469 15.62859375 10.01195312 16.3040625 10 17 C9.67 17 9.34 17 9 17 C8.81824219 15.98679687 8.81824219 15.98679687 8.6328125 14.953125 C8.46523438 14.06109375 8.29765625 13.1690625 8.125 12.25 C7.88136719 10.92742188 7.88136719 10.92742188 7.6328125 9.578125 C7.01376652 7.05608582 6.46111387 5.14812767 5 3 C3.68 2.67 2.36 2.34 1 2 C1 8.6 1 15.2 1 22 C2.65 21.67 4.3 21.34 6 21 C6 20.34 6 19.68 6 19 C6.99 19.33 7.98 19.66 9 20 C5.77175056 22.74999027 4.47851553 23.10429689 0 24 C0 16.08 0 8.16 0 0 Z " fill="#DAA84C" transform="translate(37,39)"/>
<path d="M0 0 C4.21074953 1.83076067 6.15862519 2.82621709 8 7 C8.804375 7.7425 9.60875 8.485 10.4375 9.25 C13.45360064 12.48679094 15.1511795 15.64329887 16 20 C15.5703125 22.24609375 15.5703125 22.24609375 15 24 C13.23537317 20.91190305 13 19.76687864 13 16 C12.34 16 11.68 16 11 16 C11 14.68 11 13.36 11 12 C9.35 12 7.7 12 6 12 C5.67 10.02 5.34 8.04 5 6 C4.01 6 3.02 6 2 6 C1.34 4.02 0.68 2.04 0 0 Z " fill="#EAB146" transform="translate(54,20)"/>
<path d="M0 0 C0.33 0 0.66 0 1 0 C1.53780525 11.59269089 0.35062107 20.00668598 -7.21484375 29.08203125 C-9.3020775 31.32455154 -11.48592927 33.24776889 -14 35 C-14 33.68 -14 32.36 -14 31 C-13.01 31 -12.02 31 -11 31 C-11 30.34 -11 29.68 -11 29 C-10.34 29 -9.68 29 -9 29 C-8.731875 28.443125 -8.46375 27.88625 -8.1875 27.3125 C-7 25 -7 25 -5.5625 22.9375 C-1.79415812 15.85301727 -0.64852004 7.91194449 0 0 Z " fill="#DCAC4B" transform="translate(70,44)"/>
<path d="M0 0 C9.24 0 18.48 0 28 0 C28 0.33 28 0.66 28 1 C27.21753906 1.13277344 26.43507813 1.26554687 25.62890625 1.40234375 C24.61699219 1.57894531 23.60507812 1.75554687 22.5625 1.9375 C21.55316406 2.11152344 20.54382813 2.28554687 19.50390625 2.46484375 C17.0712562 2.74751097 17.0712562 2.74751097 16 4 C13.5 4.125 13.5 4.125 11 4 C10.67 3.67 10.34 3.34 10 3 C7.68047431 2.71898054 5.36114486 2.55217375 3.03125 2.37890625 C2.3609375 2.25386719 1.690625 2.12882812 1 2 C0.67 1.34 0.34 0.68 0 0 Z " fill="#EBA62F" transform="translate(17,78)"/>
<path d="M0 0 C2.54435239 2.54435239 2.43188675 4.56174315 2.77734375 8.03515625 C2.95896702 10.07855146 2.95896702 10.07855146 3.625 12.3125 C4 14 4 14 3 17 C3.99 17.33 4.98 17.66 6 18 C5.34 18.33 4.68 18.66 4 19 C4 19.99 4 20.98 4 22 C2.02 22 0.04 22 -2 22 C-1.67257813 21.00871094 -1.34515625 20.01742187 -1.0078125 18.99609375 C0.13913622 14.98177322 0.19896279 11.24139756 0.125 7.0625 C0.11146484 6.03672852 0.11146484 6.03672852 0.09765625 4.99023438 C0.07438958 3.32666713 0.03853167 1.66328369 0 0 Z " fill="#FDFAE8" transform="translate(47,42)"/>
<path d="M0 0 C2.31 0 4.62 0 7 0 C6.67 0.99 6.34 1.98 6 3 C11.94 3 17.88 3 24 3 C24 2.34 24 1.68 24 1 C23.01 0.67 22.02 0.34 21 0 C23.97 0.495 23.97 0.495 27 1 C27 1.99 27 2.98 27 4 C18.09 4 9.18 4 0 4 C0 2.68 0 1.36 0 0 Z " fill="#FEEBB3" transform="translate(17,73)"/>
<path d="M0 0 C1.4540625 0.0309375 1.4540625 0.0309375 2.9375 0.0625 C2.2775 1.3825 1.6175 2.7025 0.9375 4.0625 C-4.6725 4.0625 -10.2825 4.0625 -16.0625 4.0625 C-16.0625 3.0725 -16.0625 2.0825 -16.0625 1.0625 C-14.78052734 1.07990234 -14.78052734 1.07990234 -13.47265625 1.09765625 C-11.81556641 1.11119141 -11.81556641 1.11119141 -10.125 1.125 C-8.47177734 1.14240234 -8.47177734 1.14240234 -6.78515625 1.16015625 C-3.46581226 1.041098 -3.44345646 0.07027462 0 0 Z " fill="#F9A117" transform="translate(37.0625,79.9375)"/>
<path d="M0 0 C0 4.29 0 8.58 0 13 C-0.33 13 -0.66 13 -1 13 C-1.495 8.05 -1.495 8.05 -2 3 C-6.62 3.33 -11.24 3.66 -16 4 C-16 4.99 -16 5.98 -16 7 C-17.32 7 -18.64 7 -20 7 C-20 5.68 -20 4.36 -20 3 C-17.60530271 2.49395076 -15.20948283 1.99500483 -12.8125 1.5 C-12.13896484 1.35691406 -11.46542969 1.21382812 -10.77148438 1.06640625 C-7.03206773 0.30028186 -3.85912726 0 0 0 Z " fill="#FEE8AF" transform="translate(37,21)"/>
<path d="M0 0 C0 0.66 0 1.32 0 2 C0.99 2.33 1.98 2.66 3 3 C2 4 2 4 -1.0625 4.0625 C-2.031875 4.041875 -3.00125 4.02125 -4 4 C-4.33 4.99 -4.66 5.98 -5 7 C-7.31 7 -9.62 7 -12 7 C-12 6.01 -12 5.02 -12 4 C-10.88625 3.525625 -9.7725 3.05125 -8.625 2.5625 C-2.68 0 -2.68 0 0 0 Z " fill="#FAA30F" transform="translate(16,68)"/>
<path d="M0 0 C2.375 0.1875 2.375 0.1875 5 1 C7.86364216 5.22728128 7.91300557 11.10020342 7 16 C5.33335993 18.73251454 3.37454663 20.86573488 1 23 C0.34 22.01 -0.32 21.02 -1 20 C-0.01 20 0.98 20 2 20 C2 19.34 2 18.68 2 18 C2.66 18 3.32 18 4 18 C5.19354869 14.27016034 5.40965996 10.89176961 5 7 C2.60416349 4.18668622 2.60416349 4.18668622 0 2 C0 1.34 0 0.68 0 0 Z " fill="#FEF1C2" transform="translate(51,40)"/>
<path d="M0 0 C0 0.66 0 1.32 0 2 C-0.99 2 -1.98 2 -3 2 C-3.04125 2.763125 -3.0825 3.52625 -3.125 4.3125 C-4 7 -4 7 -6.5625 8.75 C-10.49012363 10.17822678 -13.84626241 10.64191917 -18 11 C-17.67 10.34 -17.34 9.68 -17 9 C-14.35139573 8.40644386 -11.70802678 8.25790731 -9 8 C-8.896875 7.360625 -8.79375 6.72125 -8.6875 6.0625 C-8.460625 5.381875 -8.23375 4.70125 -8 4 C-7.01 3.67 -6.02 3.34 -5 3 C-5 2.34 -5 1.68 -5 1 C-2 0 -2 0 0 0 Z " fill="#EFA32B" transform="translate(59,73)"/>
<path d="M0 0 C6.1246542 2.37083388 12.14445914 5.02575702 18 8 C8.19561288 8.463605 8.19561288 8.463605 3.9375 6.8125 C1.68703967 4.70723066 0.87199472 2.93307315 0 0 Z " fill="#FDF2CB" transform="translate(4,79)"/>
<path d="M0 0 C0.625 1.875 0.625 1.875 1 4 C0.34 4.66 -0.32 5.32 -1 6 C-0.67801034 9.09926819 -0.67801034 9.09926819 0 12 C-2.64 12 -5.28 12 -8 12 C-8 11.01 -8 10.02 -8 9 C-7.01 8.67 -6.02 8.34 -5 8 C-4.855625 7.401875 -4.71125 6.80375 -4.5625 6.1875 C-3.81048512 3.2629977 -2.20287489 1.98969345 0 0 Z " fill="#FBF5D6" transform="translate(63,72)"/>
<path d="M0 0 C0.99 0.33 1.98 0.66 3 1 C3 1.99 3 2.98 3 4 C2.34 4 1.68 4 1 4 C0.690625 4.639375 0.38125 5.27875 0.0625 5.9375 C-1 8 -1 8 -2 9 C-3.66617115 9.04063832 -5.33388095 9.042721 -7 9 C-7.33 7.68 -7.66 6.36 -8 5 C-6.576875 4.87625 -6.576875 4.87625 -5.125 4.75 C-1.89538209 4.34925077 -1.89538209 4.34925077 -0.625 1.9375 C-0.41875 1.298125 -0.2125 0.65875 0 0 Z " fill="#F7A410" transform="translate(55,25)"/>
<path d="M0 0 C0.33 0 0.66 0 1 0 C1 8.25 1 16.5 1 25 C0.67 25 0.34 25 0 25 C0 20.05 0 15.1 0 10 C-2.31 10.33 -4.62 10.66 -7 11 C-6.34 10.01 -5.68 9.02 -5 8 C-3.68 8 -2.36 8 -1 8 C-0.67 5.36 -0.34 2.72 0 0 Z " fill="#D5B265" transform="translate(24,31)"/>
<path d="M0 0 C0.33 0.99 0.66 1.98 1 3 C1.66 3 2.32 3 3 3 C3.33 4.32 3.66 5.64 4 7 C4.763125 7.0825 5.52625 7.165 6.3125 7.25 C9.52373261 8.14615794 10.29374499 9.21611025 12 12 C5.71309239 10.20374068 0.60822701 7.61279757 -3 2 C-2.01 1.34 -1.02 0.68 0 0 Z " fill="#E6B24E" transform="translate(3,72)"/>
<path d="M0 0 C2.97 0.33 5.94 0.66 9 1 C9 2.32 9 3.64 9 5 C6.03 5 3.06 5 0 5 C0 3.35 0 1.7 0 0 Z " fill="#E2CDA1" transform="translate(55,85)"/>
<path d="M0 0 C0.99 0.66 1.98 1.32 3 2 C2.34 2.66 1.68 3.32 1 4 C0.85492305 6.74485593 0.81347577 9.38480543 0.875 12.125 C0.88853516 13.25615234 0.88853516 13.25615234 0.90234375 14.41015625 C0.9259313 16.27357254 0.96180281 18.13682593 1 20 C0.67 19.34 0.34 18.68 0 18 C-0.66 18 -1.32 18 -2 18 C-2.10452045 12.22814851 -2.08808374 6.6822151 -1 1 C-0.67 0.67 -0.34 0.34 0 0 Z " fill="#E5A834" transform="translate(3,40)"/>
<path d="M0 0 C0 0.66 0 1.32 0 2 C-2.64 2.99 -5.28 3.98 -8 5 C-7.67 6.32 -7.34 7.64 -7 9 C-8.65 9 -10.3 9 -12 9 C-12.33 7.35 -12.66 5.7 -13 4 C-12.37351563 3.79503906 -11.74703125 3.59007813 -11.1015625 3.37890625 C-10.28429688 3.10949219 -9.46703125 2.84007813 -8.625 2.5625 C-7.81289063 2.29566406 -7.00078125 2.02882813 -6.1640625 1.75390625 C-1.12953368 0 -1.12953368 0 0 0 Z " fill="#DBB255" transform="translate(50,64)"/>
<path d="M0 0 C0.125 2.875 0.125 2.875 0 6 C-2.5654594 8.5654594 -4.47686668 8.54046087 -8 9 C-4.5 0 -4.5 0 0 0 Z " fill="#FAFAFA" transform="translate(34,66)"/>
<path d="M0 0 C0.66 0.33 1.32 0.66 2 1 C1.360625 1.37125 0.72125 1.7425 0.0625 2.125 C-3.30171509 4.18472353 -6.55665044 6.37740662 -9.81640625 8.59765625 C-11.82801054 9.88954523 -13.84164166 10.97710455 -16 12 C-16 11.01 -16 10.02 -16 9 C-15.01 9 -14.02 9 -13 9 C-13 8.01 -13 7.02 -13 6 C-11.02 5.67 -9.04 5.34 -7 5 C-7 4.34 -7 3.68 -7 3 C-4.69631264 1.93347808 -2.35981813 0.93578995 0 0 Z " fill="#FEF5D8" transform="translate(16,13)"/>
<path d="M0 0 C0.33 0 0.66 0 1 0 C1.1799928 5.21979128 0.97094808 9.07262981 -1 14 C-1.99 14 -2.98 14 -4 14 C-4 14.66 -4 15.32 -4 16 C-4.66 16 -5.32 16 -6 16 C-4.9427871 13.23498164 -3.80669719 10.6288586 -2.4375 8 C-1.1228515 5.25638574 -0.43974973 2.99029816 0 0 Z " fill="#FBEBBA" transform="translate(70,56)"/>
<path d="M0 0 C0.99 0.495 0.99 0.495 2 1 C2 4.3 2 7.6 2 11 C3.65 11 5.3 11 7 11 C7 11.66 7 12.32 7 13 C4.69 13 2.38 13 0 13 C0 8.71 0 4.42 0 0 Z " fill="#E3AA4A" transform="translate(37,21)"/>
<path d="M0 0 C2.8125 0.125 2.8125 0.125 6 1 C8.797324 5.00949774 9.34474932 8.1735095 9 13 C8.731875 12.4225 8.46375 11.845 8.1875 11.25 C7.04946754 8.94252104 7.04946754 8.94252104 5.375 6.875 C4 5 4 5 4 3 C2.68 2.34 1.36 1.68 0 1 C0 0.67 0 0.34 0 0 Z " fill="#FCECC3" transform="translate(60,25)"/>
<path d="M0 0 C0 1.32 0 2.64 0 4 C-2.25660504 5.60337726 -4.53164435 6.76582217 -7 8 C-6.67 5.69 -6.34 3.38 -6 1 C-3 0 -3 0 0 0 Z " fill="#FEF5D4" transform="translate(22,35)"/>
<path d="M0 0 C6.0546875 -0.1953125 6.0546875 -0.1953125 8 0 C10 2 10 2 10 5 C10.66 5 11.32 5 12 5 C11.67 5.66 11.34 6.32 11 7 C10.01 6.34 9.02 5.68 8 5 C8 4.34 8 3.68 8 3 C6.865625 2.87625 5.73125 2.7525 4.5625 2.625 C3.386875 2.41875 2.21125 2.2125 1 2 C0.67 1.34 0.34 0.68 0 0 Z " fill="#E4B049" transform="translate(44,34)"/>
<path d="M0 0 C0 1.65 0 3.3 0 5 C-0.33 3.68 -0.66 2.36 -1 1 C-2.98 1.33 -4.96 1.66 -7 2 C-7 2.66 -7 3.32 -7 4 C-9.64 4.66 -12.28 5.32 -15 6 C-10.79053134 1.14292078 -6.3724758 -0.37485152 0 0 Z " fill="#FADFA1" transform="translate(23,34)"/>
<path d="M0 0 C0.99 0.33 1.98 0.66 3 1 C3 1.99 3 2.98 3 4 C6.3 4 9.6 4 13 4 C13.33 4.99 13.66 5.98 14 7 C12.948125 6.835 11.89625 6.67 10.8125 6.5 C7.79531204 6.10430322 5.02906028 5.90821029 2 6 C1.34 4.02 0.68 2.04 0 0 Z " fill="#F0A52C" transform="translate(41,16)"/>
<path d="M0 0 C3.40109589 4.53479452 3.40109589 4.53479452 3.3125 8.5625 C3.30863281 9.32691406 3.30476563 10.09132813 3.30078125 10.87890625 C3 13 3 13 1 16 C0.67 10.72 0.34 5.44 0 0 Z " fill="#E8A729" transform="translate(67,40)"/>
<path d="M0 0 C0.99 0.33 1.98 0.66 3 1 C3.82622671 6.60563042 4.06795656 11.42289352 3 17 C2.67 17 2.34 17 2 17 C1.34 11.39 0.68 5.78 0 0 Z " fill="#FEEDBD" transform="translate(69,38)"/>
<path d="M0 0 C1.32 0 2.64 0 4 0 C3.65978036 3.17538332 2.97533396 4.02276865 0.5625 6.25 C-2 8 -2 8 -4 8 C-4 7.34 -4 6.68 -4 6 C-3.34 5.67 -2.68 5.34 -2 5 C-1.27840576 3.35636866 -0.60648579 1.68949614 0 0 Z " fill="#F7A229" transform="translate(4,66)"/>
<path d="M0 0 C0.33 0.99 0.66 1.98 1 3 C0.67 3.66 0.34 4.32 0 5 C0.99 5.33 1.98 5.66 3 6 C0.09907498 7.93395001 -0.89674737 8.30131941 -4.1875 8.625 C-5.445625 8.74875 -6.70375 8.8725 -8 9 C-6 7 -6 7 -3.375 6.875 C-2.59125 6.91625 -1.8075 6.9575 -1 7 C-1.66 5.35 -2.32 3.7 -3 2 C-2.01 1.34 -1.02 0.68 0 0 Z " fill="#FCECBA" transform="translate(45,59)"/>
<path d="M0 0 C0.66 0 1.32 0 2 0 C4.20914 3.31371 4.22481553 4.3446021 4.125 8.1875 C4.10695313 9.08855469 4.08890625 9.98960938 4.0703125 10.91796875 C4.03550781 11.94857422 4.03550781 11.94857422 4 13 C3.01 13.495 3.01 13.495 2 14 C1.34 9.38 0.68 4.76 0 0 Z " fill="#E5B355" transform="translate(56,42)"/>
<path d="M0 0 C2.97 0.33 5.94 0.66 9 1 C8.67 2.65 8.34 4.3 8 6 C6.68 5.67 5.36 5.34 4 5 C4.66 5 5.32 5 6 5 C4.06745228 2.9754262 2.36841312 1.57894208 0 0 Z " fill="#D7AC5B" transform="translate(16,67)"/>
<path d="M0 0 C3.47478479 3.01148016 4.97043629 5.50735835 6 10 C5.625 12.375 5.625 12.375 5 14 C3.23537317 10.91190305 3 9.76687864 3 6 C2.34 6 1.68 6 1 6 C0.67 4.02 0.34 2.04 0 0 Z " fill="#E3B75D" transform="translate(64,30)"/>
<path d="M0 0 C0.33 1.32 0.66 2.64 1 4 C3.64 3.34 6.28 2.68 9 2 C8.67 3.32 8.34 4.64 8 6 C1.9453125 6.1953125 1.9453125 6.1953125 0 6 C-0.66 5.34 -1.32 4.68 -2 4 C-1.34 4 -0.68 4 0 4 C0 2.68 0 1.36 0 0 Z " fill="#FAF6DA" transform="translate(57,86)"/>
<path d="M0 0 C1.65 0.33 3.3 0.66 5 1 C5.33 1.99 5.66 2.98 6 4 C5.21625 4.268125 4.4325 4.53625 3.625 4.8125 C0.71885077 5.84814432 0.71885077 5.84814432 -1 9 C-0.625 6.5625 -0.625 6.5625 0 4 C0.66 3.67 1.32 3.34 2 3 C1.34 2.67 0.68 2.34 0 2 C0 1.34 0 0.68 0 0 Z " fill="#EBA52E" transform="translate(16,68)"/>
<path d="M0 0 C2 2 2 2 2.1953125 5.4765625 C2.18201493 6.85950968 2.15816232 8.24238654 2.125 9.625 C2.11597656 10.33140625 2.10695312 11.0378125 2.09765625 11.765625 C2.07407603 13.51056098 2.03820461 15.25532295 2 17 C1.01 17.33 0.02 17.66 -1 18 C-0.505 16.515 -0.505 16.515 0 15 C0.07029121 12.42734182 0.09370832 9.88358569 0.0625 7.3125 C0.05573242 6.2596582 0.05573242 6.2596582 0.04882812 5.18554688 C0.03706927 3.45699462 0.01913454 1.72848635 0 0 Z " fill="#FEF6D6" transform="translate(47,42)"/>
<path d="M0 0 C0.33 1.32 0.66 2.64 1 4 C-0.4375 6.25 -0.4375 6.25 -2 8 C-3.32 7.67 -4.64 7.34 -6 7 C-4.02 4.69 -2.04 2.38 0 0 Z " fill="#E3BB54" transform="translate(57,56)"/>
<path d="M0 0 C7.42857143 -0.14285714 7.42857143 -0.14285714 11 1 C11 1.99 11 2.98 11 4 C9.68 4 8.36 4 7 4 C7 3.34 7 2.68 7 2 C4.69 1.67 2.38 1.34 0 1 C0 0.67 0 0.34 0 0 Z " fill="#FCF7D9" transform="translate(37,12)"/>
<path d="M0 0 C0.33 0 0.66 0 1 0 C1 1.98 1 3.96 1 6 C2.32 6.66 3.64 7.32 5 8 C3.5199159 7.88637738 2.04089926 7.75877092 0.5625 7.625 C-0.26121094 7.55539063 -1.08492187 7.48578125 -1.93359375 7.4140625 C-2.61550781 7.27742188 -3.29742188 7.14078125 -4 7 C-4.33 6.34 -4.66 5.68 -5 5 C-2.525 5.495 -2.525 5.495 0 6 C0 4.02 0 2.04 0 0 Z " fill="#E3C073" transform="translate(24,56)"/>
<path d="M0 0 C0.33 0 0.66 0 1 0 C1 2.64 1 5.28 1 8 C0.01 7.67 -0.98 7.34 -2 7 C-2.125 4.625 -2.125 4.625 -2 2 C-1.34 1.34 -0.68 0.68 0 0 Z " fill="#F8A40E" transform="translate(21,42)"/>
<path d="M0 0 C2.3431213 0.25561323 4.67843403 0.59270772 7 1 C7.33 1.66 7.66 2.32 8 3 C5.36 3 2.72 3 0 3 C0 2.01 0 1.02 0 0 Z " fill="#E4AA41" transform="translate(44,17)"/>
<path d="M0 0 C2.31 0.33 4.62 0.66 7 1 C7.33 2.32 7.66 3.64 8 5 C1.125 2.25 1.125 2.25 0 0 Z " fill="#FBEBC1" transform="translate(48,16)"/>
<path d="M0 0 C1.0625 1.8125 1.0625 1.8125 2 4 C1.67 4.99 1.34 5.98 1 7 C-0.32 6.34 -1.64 5.68 -3 5 C-2.01 3.35 -1.02 1.7 0 0 Z " fill="#F6A512" transform="translate(42,47)"/>
<path d="M0 0 C1.32 0.33 2.64 0.66 4 1 C4.33 2.32 4.66 3.64 5 5 C4.01 4.67 3.02 4.34 2 4 C1.34 4.99 0.68 5.98 0 7 C0 4.69 0 2.38 0 0 Z " fill="#F2A627" transform="translate(39,41)"/>
<path d="M0 0 C0.33 0 0.66 0 1 0 C1.144375 1.051875 1.28875 2.10375 1.4375 3.1875 C1.87526966 6.15460549 2.37804866 9.06794366 3 12 C2.67 11.34 2.34 10.68 2 10 C1.34 10 0.68 10 0 10 C0 6.7 0 3.4 0 0 Z " fill="#E6A823" transform="translate(1,48)"/>
</svg>
